<svg width="64" height="64" viewBox="0 0 64 64" fill="none" xmlns="http://www.w3.org/2000/svg">
  <defs>
    <linearGradient id="casinoGradient" x1="16" y1="14" x2="52" y2="50" gradientUnits="userSpaceOnUse">
      <stop offset="0" stop-color="#F472B6" />
      <stop offset="1" stop-color="#F97316" />
    </linearGradient>
  </defs>
  <rect x="11" y="17" width="42" height="34" rx="12" fill="url(#casinoGradient)" />
  <path d="M32 22L36 28H28L32 22Z" fill="#F8FAFC" />
  <path d="M32 42C28.134 42 25 38.866 25 35C25 31.134 28.134 28 32 28C35.866 28 39 31.134 39 35C39 38.866 35.866 42 32 42Z" fill="#0F172A" opacity="0.35" />
  <path d="M32 32C34.2091 32 36 33.7909 36 36C36 38.2091 34.2091 40 32 40C29.7909 40 28 38.2091 28 36C28 33.7909 29.7909 32 32 32Z" fill="#F8FAFC" />
  <path d="M20 36H24" stroke="#F8FAFC" stroke-width="3" stroke-linecap="round" opacity="0.6" />
  <path d="M40 36H44" stroke="#F8FAFC" stroke-width="3" stroke-linecap="round" opacity="0.6" />
</svg>
